<svg width="40" height="40" viewBox="0 0 40 40" fill="none" xmlns="http://www.w3.org/2000/svg">
  <!-- Compact shield for navbar -->
  <path d="M20 4L8 9V18C8 25 11 29 20 36C29 29 32 25 32 18V9L20 4Z"
        fill="url(#logo-gradient-fill)"
        stroke="url(#logo-gradient-stroke)"
        stroke-width="1.5"
        stroke-linejoin="round"/>

  <!-- Lock body -->
  <rect x="15" y="18" width="10" height="11" rx="2"
        fill="url(#logo-lock-grad)"
        stroke="white"
        stroke-width="0.8"
        opacity="0.95"/>

  <!-- Keyhole -->
  <circle cx="20" cy="21.5" r="1.5" fill="white" opacity="0.5"/>
  <rect x="19" y="21.5" width="2" height="3" rx="0.5" fill="white" opacity="0.5"/>

  <!-- Open shackle (simplified for small size) -->
  <path d="M16.5 18V15C16.5 13.3 18 12 20 12C22 12 23.5 13.3 23.5 15V14.5"
        stroke="white"
        stroke-width="1.8"
        stroke-linecap="round"
        fill="none"
        opacity="0.9"/>

  <!-- Unlocked indicator -->
  <circle cx="23.5" cy="14.5" r="1.2" fill="#10B981"/>

  <!-- Gradients -->
  <defs>
    <linearGradient id="logo-gradient-fill" x1="20" y1="4" x2="20" y2="36" gradientUnits="userSpaceOnUse">
      <stop offset="0%" stop-color="#6366F1" stop-opacity="0.2"/>
      <stop offset="100%" stop-color="#8B5CF6" stop-opacity="0.3"/>
    </linearGradient>

    <linearGradient id="logo-gradient-stroke" x1="8" y1="4" x2="32" y2="36" gradientUnits="userSpaceOnUse">
      <stop offset="0%" stop-color="#6366F1"/>
      <stop offset="50%" stop-color="#8B5CF6"/>
      <stop offset="100%" stop-color="#0EA5E9"/>
    </linearGradient>

    <linearGradient id="logo-lock-grad" x1="15" y1="18" x2="25" y2="29" gradientUnits="userSpaceOnUse">
      <stop offset="0%" stop-color="#6366F1"/>
      <stop offset="100%" stop-color="#8B5CF6"/>
    </linearGradient>
  </defs>
</svg>
